<svg width="33" height="12" viewBox="0 0 33 12" fill="none" xmlns="http://www.w3.org/2000/svg">
<path fill-rule="evenodd" clip-rule="evenodd" d="M8.33368 11.1443H5.58736L3.52795 3.05649C3.4302 2.68445 3.22265 2.35554 2.91736 2.20053C2.15546 1.81096 1.3159 1.50093 0.400009 1.34456V1.03318H4.82412C5.43471 1.03318 5.89265 1.50093 5.96898 2.04416L7.03751 7.87818L9.78249 1.03318H12.4525L8.33368 11.1443ZM13.979 11.1443H11.3853L13.521 1.03318H16.1147L13.979 11.1443ZM19.4703 3.83427C19.5466 3.28969 20.0045 2.97831 20.5388 2.97831C21.3784 2.90013 22.2929 3.05649 23.0562 3.44471L23.5141 1.26773C22.7509 0.956353 21.9113 0.799988 21.1494 0.799988C18.6321 0.799988 16.8003 2.20053 16.8003 4.14431C16.8003 5.62303 18.0978 6.39946 19.0137 6.86721C20.0045 7.33361 20.3862 7.64499 20.3098 8.11139C20.3098 8.81099 19.5466 9.12237 18.7847 9.12237C17.8688 9.12237 16.9529 8.88917 16.1147 8.4996L15.6568 10.6779C16.5726 11.0661 17.5635 11.2225 18.4794 11.2225C21.302 11.2993 23.0562 9.90015 23.0562 7.80001C23.0562 5.15528 19.4703 5.00027 19.4703 3.83427ZM32.1333 11.1443L30.0739 1.03318H27.8619C27.4039 1.03318 26.946 1.34456 26.7933 1.81096L22.9798 11.1443H25.6498L26.1828 9.66694H29.4633L29.7686 11.1443H32.1333ZM28.2435 3.7561L29.0054 7.56682H26.8697L28.2435 3.7561Z" fill="#172B85"/>
</svg>
